<?xml version="1.0" encoding="utf-8"?>
<!-- Svg Vector Icons : http://www.onlinewebfonts.com/icon -->
<!DOCTYPE svg PUBLIC "-//W3C//DTD SVG 1.1//EN" "http://www.w3.org/Graphics/SVG/1.1/DTD/svg11.dtd">
<svg version="1.1" xmlns="http://www.w3.org/2000/svg" xmlns:xlink="http://www.w3.org/1999/xlink" x="0px" y="0px" viewBox="0 0 1000 1000" enable-background="new 0 0 1000 1000" xml:space="preserve">
<metadata> Svg Vector Icons : http://www.onlinewebfonts.com/icon </metadata>
<g><g transform="translate(0.000000,511.000000) scale(0.100000,-0.100000)"><path d="M4643.6,5006.7c-1160.8-100.8-2202-564.7-3022.8-1345.6C823.2,2903.3,311,1914.6,138.8,799.9C88.5,468.3,86.4-228.6,136.8-572.9c293.9-1985.8,1725.5-3583.3,3654.6-4074.5c436.6-109.2,720-144.9,1198.6-144.9c541.6-2.1,955.1,56.7,1427.4,199.4c1566,478.6,2787.7,1694,3272.6,3257.9c151.1,489.1,212,898.5,209.9,1452.6c0,478.6-35.7,762-144.9,1198.6c-489.1,1922.8-2103.4,3371.2-4064,3650.4C5460.2,5000.4,4836.8,5023.5,4643.6,5006.7z M5443.4,4557.4c992.9-100.8,1914.4-529,2638.7-1225.9c384.1-371.6,652.9-734.7,898.4-1219.6c1011.8-2002.6,348.5-4456.5-1545-5705.5C5710-4731.3,3417.7-4517.2,1918.9-3075.1c-384.2,371.6-652.8,734.7-898.5,1219.6C8.7,147.1,672,2598.9,2565.5,3850C3400.9,4402.1,4442.1,4658.2,5443.4,4557.4z"/><path d="M3598.3,1507.4l-46.2-48.3v-1354v-1356.1l48.3-44.1l48.3-46.2h1354h1356.1l44.1,48.3l46.2,48.3v1354v1356l-48.3,44.1l-48.3,46.2h-1354h-1356L3598.3,1507.4z"/></g></g>
</svg>